<svg xmlns="http://www.w3.org/2000/svg" width="256" height="256" viewBox="0 0 256 256"><path fill="#00C4CC" d="M128 0C57.308 0 0 57.308 0 128s57.308 128 128 128s128-57.308 128-128S198.692 0 128 0Z"/><path fill="#fff" d="m173.308 90.77-16.124 16.123l-31.94-31.94a11.116 11.116 0 1 1 15.72-15.72Z"/><path fill="#fff" d="M125.414 125.244a11.116 11.116 0 1 1-15.72 15.72l-31.94-31.94l16.124-16.123Z"/><ellipse cx="125.244" cy="125.244" fill="#AF8EFF" rx="19.348" ry="19.348"/><path fill="#fff" d="m157.185 157.185-16.124-16.124l-31.94 31.94a11.116 11.116 0 1 0 15.72 15.72z"/><ellipse cx="173.138" cy="125.244" fill="#AF8EFF" rx="19.348" ry="19.348"/><ellipse cx="125.244" cy="173.138" fill="#AF8EFF" rx="19.348" ry="19.348"/><ellipse cx="77.349" cy="125.244" fill="#AF8EFF" rx="19.348" ry="19.348"/><ellipse cx="125.244" cy="77.349" fill="#AF8EFF" rx="19.348" ry="19.348"/></svg>