<svg xmlns="http://www.w3.org/2000/svg" width="256" height="256" viewBox="0 0 24 24"><path fill="#00f2ea" d="M12.525.02c1.31-.02 2.61-.01 3.91-.02c.08 0 .15.01.23.01c.26.02.5.07.75.12c.23.04.47.07.7.11c.21.04.42.08.62.13c.2.05.4.1.59.16c.32.1.64.22.95.36c.22.1.44.22.65.34c.18.1.37.2.54.32c.25.17.48.37.71.59c.22.21.43.44.62.68c.18.23.34.47.49.72c.13.21.25.43.35.66c.11.23.2.47.28.71c.08.26.15.52.2.79c.04.2.08.39.11.59c.03.22.06.44.07.66c.02.26.03.52.03.78v.17a12.1 12.1 0 0 1-4.52 10.87a12.03 12.03 0 0 1-12.44 2.13a11.96 11.96 0 0 1-8.52-8.53a12.02 12.02 0 0 1 2.12-12.43a12.12 12.12 0 0 1 10.86-4.5zM15.72 3.01c-.2-.04-.4-.07-.6-.11c-.2-.04-.39-.08-.59-.11c-.21-.03-.43-.06-.64-.08c-.24-.03-.49-.05-.73-.06c-.25-.01-.5-.02-.75-.02c-.99 0-1.99.01-2.98.02c-3.51.05-6.84 1.54-9.28 4.31a9.01 9.01 0 0 0-2.12 11.16a8.96 8.96 0 0 0 7.82 5.01a8.93 8.93 0 0 0 9.24-5.32a9.04 9.04 0 0 0-1.42-9.65a9.12 9.12 0 0 0-7.05-3.41v2.99c2.19 0 4.19.82 5.67 2.21c1.47 1.39 2.28 3.32 2.22 5.37c-.06 2.06-1.02 3.93-2.68 5.16c-1.66 1.23-3.8 1.6-5.74 1.03c-1.94-.57-3.53-1.99-4.39-3.79c-.86-1.8-1-3.91-.4-5.81c.6-1.9 1.98-3.45 3.78-4.27v4.69c0 1.24-.93 2.3-2.14 2.44c-1.2.14-2.33-.8-2.47-2c-.14-1.21.8-2.33 2-2.47c.08-.01.15-.02.23-.02h.11v-4.7c.01-.01.01-.02.02-.03z"/><path fill="#ff0050" d="M12.525.02c1.31-.02 2.61-.01 3.91-.02c.08 0 .15.01.23.01c.26.02.5.07.75.12c.23.04.47.07.7.11c.21.04.42.08.62.13c.2.05.4.1.59.16c.32.1.64.22.95.36c.22.1.44.22.65.34c.18.1.37.2.54.32c.25.17.48.37.71.59c.22.21.43.44.62.68c.18.23.34.47.49.72c.13.21.25.43.35.66c.11.23.2.47.28.71c.08.26.15.52.2.79c.04.2.08.39.11.59c.03.22.06.44.07.66c.02.26.03.52.03.78v.17a12.1 12.1 0 0 1-4.52 10.87a12.03 12.03 0 0 1-12.44 2.13a11.96 11.96 0 0 1-8.52-8.53a12.02 12.02 0 0 1 2.12-12.43a12.12 12.12 0 0 1 10.86-4.5zM15.72 3.01c-.2-.04-.4-.07-.6-.11c-.2-.04-.39-.08-.59-.11c-.21-.03-.43-.06-.64-.08c-.24-.03-.49-.05-.73-.06c-.25-.01-.5-.02-.75-.02c-.99 0-1.99.01-2.98.02c-3.51.05-6.84 1.54-9.28 4.31a9.01 9.01 0 0 0-2.12 11.16a8.96 8.96 0 0 0 7.82 5.01a8.93 8.93 0 0 0 9.24-5.32a9.04 9.04 0 0 0-1.42-9.65a9.12 9.12 0 0 0-7.05-3.41v2.99c2.19 0 4.19.82 5.67 2.21c1.47 1.39 2.28 3.32 2.22 5.37c-.06 2.06-1.02 3.93-2.68 5.16c-1.66 1.23-3.8 1.6-5.74 1.03c-1.94-.57-3.53-1.99-4.39-3.79c-.86-1.8-1-3.91-.4-5.81c.6-1.9 1.98-3.45 3.78-4.27v4.69c0 1.24-.93 2.3-2.14 2.44c-1.2.14-2.33-.8-2.47-2c-.14-1.21.8-2.33 2-2.47c.08-.01.15-.02.23-.02h.11v-4.7c.01-.01.01-.02.02-.03z"/></svg>